<?xml version="1.0" encoding="UTF-8"?>
<svg width="48px" height="48px" viewBox="0 0 48 48" version="1.1" xmlns="http://www.w3.org/2000/svg" xmlns:xlink="http://www.w3.org/1999/xlink">
    <!-- Generator: Sketch 52.2 (67145) - http://www.bohemiancoding.com/sketch -->
    <title>zhifubao-2@1x</title>
    <desc>Created with Sketch.</desc>
    <defs>
        <path d="M12,0 L38,0 C43.5228475,-1.01453063e-15 48,4.4771525 48,10 L48,38 C48,43.5228475 43.5228475,48 38,48 L10,48 C4.4771525,48 4.22906743e-15,43.5228475 3.55271368e-15,38 L0,12 C-8.11624501e-16,5.372583 5.372583,1.21743675e-15 12,0 Z" id="path-1"></path>
    </defs>
    <g id="Page-1" stroke="none" stroke-width="1" fill="none" fill-rule="evenodd">
        <g id="已登录显示_点击续费或支付时_专业帐户" transform="translate(-1044.000000, -661.000000)">
            <g id="升级帐户" transform="translate(209.000000, 180.000000)">
                <g id="专业帐户" transform="translate(0.000000, 146.000000)">
                    <g id="收银台" transform="translate(284.000000, 100.000000)">
                        <g id="信息区">
                            <g id="二维码" transform="translate(480.000000, 165.000000)">
                                <g transform="translate(5.000000, 5.000000)" id="屏幕快照-2018-06-28-下午2.20.52">
                                    <g>
                                        <g id="zhifubao-2" transform="translate(66.000000, 65.000000)">
                                            <mask id="mask-2" fill="white">
                                                <use xlink:href="#path-1"></use>
                                            </mask>
                                            <use id="Clip-2" fill="#FFFFFF" xlink:href="#path-1"></use>
                                            <path d="M15.0892961,34.2307692 C9.53241357,34.2307692 8.65302425,30.5409787 8.94729795,28.9988285 C9.23985576,27.4638973 10.8493527,25.4615385 13.9387975,25.4615385 C17.4898144,25.4615385 20.6702009,26.4171482 24.4871795,28.3716814 C21.8061145,32.0434246 18.5116219,34.2307692 15.0892961,34.2307692 M43,31.0146196 L43,12.3061096 C43,8.27411786 39.7268133,5 35.6923407,5 L12.3050874,5 C8.27232939,5 5,8.27411786 5,12.3061096 L5,35.6938904 C5,39.7267395 8.26975747,43 12.3050874,43 L35.6923407,43 C39.2853017,43 42.2755781,40.4014529 42.8859786,36.9833048 C40.9476142,36.1448425 32.5494642,32.5183648 28.1754992,30.4299251 C24.8448731,34.4636314 21.359075,36.8838552 16.1029442,36.8838552 C10.8468133,36.8838552 7.33872532,33.645745 7.75966159,29.6849111 C8.03742809,27.0837921 9.82062042,22.8323256 17.5680767,23.5619078 C21.6505584,23.944274 23.5203384,24.7064344 26.8501072,25.8063803 C27.7116977,24.2271907 28.4266892,22.4885389 28.97022,20.6384352 L14.2048731,20.6384352 L14.2048731,19.1749842 L21.5108178,19.1749842 L21.5108178,16.5481455 L12.5991427,16.5481455 L12.5991427,14.9380922 L21.5108178,14.9380922 L21.5108178,11.1470084 C21.5108178,11.1470084 21.5914044,10.5537406 22.247242,10.5537406 L25.899357,10.5537406 L25.899357,14.9380922 L35.4,14.9380922 L35.4,16.5481455 L25.899357,16.5481455 L25.899357,19.1749842 L33.6493852,19.1749842 C32.9369656,22.0744518 31.8567625,24.73987 30.5022222,27.0675029 C32.7543598,27.8819601 43,31.0146196 43,31.0146196" id="Fill-1" fill="#00ACED" mask="url(#mask-2)"></path>
                                        </g>
                                    </g>
                                </g>
                            </g>
                        </g>
                    </g>
                </g>
            </g>
        </g>
    </g>
</svg>