<?xml version="1.0" encoding="UTF-8"?>
<svg width="48px" height="48px" viewBox="0 0 48 48" version="1.1" xmlns="http://www.w3.org/2000/svg" xmlns:xlink="http://www.w3.org/1999/xlink">
    <!-- Generator: Sketch 52.2 (67145) - http://www.bohemiancoding.com/sketch -->
    <title>weixin-2@1x</title>
    <desc>Created with Sketch.</desc>
    <defs>
        <path d="M12,0 L38,0 C43.5228475,-1.01453063e-15 48,4.4771525 48,10 L48,38 C48,43.5228475 43.5228475,48 38,48 L10,48 C4.4771525,48 4.22906743e-15,43.5228475 3.55271368e-15,38 L0,12 C-8.11624501e-16,5.372583 5.372583,1.21743675e-15 12,0 Z" id="path-1"></path>
    </defs>
    <g id="Page-1" stroke="none" stroke-width="1" fill="none" fill-rule="evenodd">
        <g id="已登录显示_点击续费或支付时_标准帐户" transform="translate(-1045.000000, -664.000000)">
            <g id="专业帐户" transform="translate(209.000000, 326.000000)">
                <g id="收银台" transform="translate(285.000000, 103.000000)">
                    <g id="信息区">
                        <g id="二维码" transform="translate(480.000000, 165.000000)">
                            <g transform="translate(5.000000, 5.000000)" id="屏幕快照-2018-06-28-下午2.20.52">
                                <g>
                                    <g id="weixin-2" transform="translate(66.000000, 65.000000)">
                                        <mask id="mask-2" fill="white">
                                            <use xlink:href="#path-1"></use>
                                        </mask>
                                        <use id="Clip-2" fill="#FFFFFF" xlink:href="#path-1"></use>
                                        <path d="M19.724204,29.2948551 C17.5694485,30.5179144 17.2495317,28.6090847 17.2495317,28.6090847 L14.5493444,22.1968252 C13.5101769,19.1498921 15.4491571,20.8229883 15.4491571,20.8229883 C15.4491571,20.8229883 17.1124246,22.1034502 18.3741103,22.883361 C19.635796,23.6640371 21.0742976,23.1122062 21.0742976,23.1122062 L38.7281582,14.8209664 C35.4720499,10.6963942 30.091155,8 23.9992508,8 C14.0586056,8 6,15.1760975 6,24.029118 C6,29.1211164 8.66797086,33.6528648 12.824641,36.5903501 L12.0746722,40.9751478 C12.0746722,40.9751478 11.7098023,42.2548443 12.9759834,41.6609182 C13.8390843,41.2560381 16.0380437,39.8056643 17.3476795,38.9231941 C19.4065349,39.6525906 21.648949,40.058236 24,40.058236 C33.9406452,40.058236 42,32.8821385 42,24.029118 C42,21.4651326 41.3212071,19.0427405 40.1187097,16.893585 C34.4935692,20.3377445 21.4106972,28.3404402 19.724204,29.2948551" id="Fill-1" fill="#00C800" mask="url(#mask-2)"></path>
                                    </g>
                                </g>
                            </g>
                        </g>
                    </g>
                </g>
            </g>
        </g>
    </g>
</svg>